# AST/ASF file generated using VICON BodyLanguage
# -----------------------------------------------
:version 1.10
:name VICON
:units
  mass 1.0
  length 0.45
  angle deg
:documentation
   .ast/.asf automatically generated from VICON data using
   VICON BodyBuilder and BodyLanguage model FoxedUp or BRILLIANT.MOD
:root
   order TX TY TZ RX RY RZ
   axis XYZ
   position 0 0 0  
   orientation 0 0 0 
:bonedata
  begin
     id 1 
     name lhipjoint
     direction 0.693937 -0.600361 0.397515 
     length 2.37164 
     axis 0 0 0  XYZ
  end
  begin
     id 2 
     name lfemur
     direction 0.34202 -0.939693 0  
     length 6.18497  
     axis 0 0 20  XYZ
    dof rx ry rz
    limits (-160.0 20.0)
           (-70.0 70.0)
           (-60.0 70.0)
  end
  begin
     id 3 
     name ltibia
     direction 0.34202 -0.939693 0   
     length 6.91601   
     axis 0 0 20   XYZ
    dof rx
    limits (-10.0 170.0)
  end
  begin
     id 4 
     name lfoot
     direction 0.0978718 -0.2689 0.958182   
     length 1.81453   
     axis -90 7.62852e-016 20   XYZ
    dof rx rz
    limits (-45.0 90.0)
           (-70.0 20.0)
  end
  begin
     id 5 
     name ltoes
     direction 1.53569e-011 -4.21951e-011 1   
     length 0.912052   
     axis -90 7.62852e-016 20   XYZ
    dof rx
    limits (-90.0 20.0)
  end
  begin
     id 6 
     name rhipjoint
     direction -0.643996 -0.637876 0.422354   
     length 2.23216  
     axis 0 0 0  XYZ 
  end
  begin
     id 7 
     name rfemur
     direction -0.34202 -0.939693 0   
     length 6.15404   
     axis 0 0 -20   XYZ
    dof rx ry rz
    limits (-160.0 20.0)
           (-70.0 70.0)
           (-70.0 60.0)
  end
  begin
     id 8 
     name rtibia
     direction -0.34202 -0.939693 0   
     length 6.86744   
     axis 0 0 -20   XYZ
    dof rx
    limits (-10.0 170.0)
 end
 begin
     id 9 
     name rfoot
     direction -0.118701 -0.326127 0.937844   
     length 1.9243  
     axis -90 -7.62852e-016 -20   XYZ
    dof rx rz
    limits (-45.0 90.0)
           (-20.0 70.0)
  end
  begin
     id 10 
     name rtoes
     direction -1.5356e-011 -4.2181e-011 1   
     length 0.958865   
     axis -90 -7.62852e-016 -20   XYZ
    dof rx
    limits (-90.0 20.0)
  end
  begin
     id 11 
     name lowerback
     direction 0.0310826 0.968686 -0.246334   
     length 2.00021   
     axis 0 0 0   XYZ
    dof rx ry rz
    limits (-20.0 45.0)
           (-30.0 30.0)
           (-30.0 30.0)
  end
  begin
     id 12 
     name upperback
     direction -0.0152834 0.999474 -0.0286152   
     length 2.03728   
     axis 0 0 0   XYZ
    dof rx ry rz
    limits (-20.0 45.0)
           (-30.0 30.0)
           (-30.0 30.0)
  end
  begin
     id 13 
     name thorax
     direction -0.0323701 0.996236 0.0804149   
     length 2.16   
     axis 0 0 0   XYZ
    dof rx ry rz
    limits (-20.0 45.0)
           (-30.0 30.0)
           (-30.0 30.0)
  end
  begin
     id 14 
     name lowerneck
     direction 0.0307935 0.982251 0.185027   
     length 1.43558   
     axis 0 0 0   XYZ
    dof rx ry rz
    limits (-20.0 45.0)
           (-30.0 30.0)
           (-30.0 30.0)
  end
  begin
     id 15 
     name upperneck
     direction -0.0927153 0.994775 0.0427454   
     length 1.44603   
     axis 0 0 0   XYZ
    dof rx ry rz
    limits (-20.0 45.0)
           (-30.0 30.0)
           (-30.0 30.0)
  end
  begin
     id 16
     name head
     direction -0.0341265 0.999406 -0.00472033  
     length 1.45931  
     axis 0 0 0   XYZ
    dof rx ry rz
    limits (-20.0 45.0)
           (-30.0 30.0)
           (-30.0 30.0)
  end
  begin
     id 17 
     name lclavicle
     direction 0.820755 0.555306 -0.134151  
     length 2.66075  
     axis 0 0 0   XYZ
    dof ry rz
    limits (-20.0 10.0)
           (0.0 20.0)
  end
  begin
     id 18 
     name lhumerus
     direction 1 -4.48971e-011 5.24853e-027   
     length 5.0546   
     axis -180 -30 -90   XYZ
    dof rx ry rz
    limits (-60.0 90.0)
           (-90.0 90.0)
           (-90.0 90.0)
  end
  begin
     id 19
     name lradius
     direction 1 -4.48971e-011 2.76575e-028   
     length 3.39013   
     axis -180 -30 -90   XYZ
    dof rx
    limits (-10.0 170.0)
  end
  begin
     id 20
     name lwrist
     direction 1 -4.48939e-011 -2.27826e-027   
     length 1.69507   
     axis 2.17013e-015 90 90   XYZ
    dof ry
    limits (-180.0 0.0)
 end
  begin
     id 21 
     name lhand
     direction 1 -4.49009e-011 -4.55652e-027   
     length 0.572425   
     axis 2.90745e-015 90 90   XYZ
    dof rx rz
    limits (-90.0 90.0)
           (-45.0 45.0)
  end
  begin
     id 22 
     name lfingers
     direction 1 -4.48955e-011 -9.11303e-027   
     length 0.461504   
     axis 5.81489e-015 90 90   XYZ
    dof rx
    limits (0.0 90.0)
  end
  begin
     id 23
     name lthumb
     direction 0.707107 -6.34929e-011 0.707107   
     length 0.66263   
     axis -90 45 2.85299e-015   XYZ
    dof rx rz
    limits (-45.0 45.0)
           (-45.0 45.0)
  end
  begin
     id 24 
     name rclavicle
     direction -0.754477 0.632921 -0.173712   
     length 2.73081  
     axis 0 0 0   XYZ 
    dof ry rz
    limits (-10.0 20.0)
           (-20.0 0.0)
  end
  begin
     id 25 
     name rhumerus
     direction -1 -4.48969e-011 5.1496e-027  
     length 5.0701   
     axis -180 30 90   XYZ
    dof rx ry rz
    limits (-90.0 60.0)
           (-90.0 90.0)
           (-90.0 90.0)
  end
  begin
     id 26 
     name rradius
     direction -1 -4.48967e-011 -7.15624e-028   
     length 3.14957   
     axis -180 30 90   XYZ
    dof rx
    limits (-10.0 170.0)
  end
  begin
     id 27 
     name rwrist
     direction -1 -4.48938e-011 -2.27826e-027   
     length 1.57479   
     axis 2.17013e-015 -90 -90   XYZ
    dof ry
    limits (-180.0 0.0)
  end
  begin
     id 28
     name rhand
     direction -1 -4.49008e-011 -4.55652e-027   
     length 0.718191   
     axis 2.90745e-015 -90 -90   XYZ
    dof rx rz
    limits (-90.0 90.0)
           (-45.0 45.0)
  end
  begin
     id 29
     name rfingers
     direction -1 -4.48953e-011 -9.11303e-027   
     length 0.579024   
     axis 5.81489e-015 -90 -90   XYZ
    dof rx
    limits (0.0 90.0)
  end
  begin
     id 30
     name rthumb
     direction -0.707107 -6.34937e-011 0.707107   
     length 0.831366   
     axis -90 -45 -2.85299e-015   XYZ
    dof rx rz
    limits (-45.0 45.0)
           (-45.0 45.0)
  end
:hierarchy
  begin
    root lhipjoint rhipjoint lowerback
    lhipjoint lfemur
    lfemur ltibia
    ltibia lfoot
    lfoot ltoes
    rhipjoint rfemur
    rfemur rtibia
    rtibia rfoot
    rfoot rtoes
    lowerback upperback
    upperback thorax
    thorax lowerneck lclavicle rclavicle
    lowerneck upperneck
    upperneck head
    lclavicle lhumerus
    lhumerus lradius
    lradius lwrist
    lwrist lhand lthumb
    lhand lfingers
    rclavicle rhumerus
    rhumerus rradius
    rradius rwrist
    rwrist rhand rthumb
    rhand rfingers
  end

#!OML:ASF H:\Male1\Project 1\Capture day 1\Session 1\Male1.ASF
:FULLY-SPECIFIED
:DEGREES
52
root 11.5281 15.3161 1.54699 179.362 8.5577 -179.817
lowerback 7.58405 0.856593 -1.77766
upperback 4.02062 1.34036 -1.64908
thorax -0.0963316 0.800713 -0.799879
lowerneck -5.09436 6.43767 8.36698
upperneck 2.69557 8.25612 -5.42505
head 2.41369 4.08665 -2.91294
rclavicle -1.27222e-014 -1.82882e-014
rhumerus -37.5978 -6.35995 -83.0972
rradius 36.7392
rwrist -19.1169
rhand -21.8216 3.39845
rfingers 7.12502
rthumb 4.58107 -26.532
lclavicle -1.27222e-014 -1.82882e-014
lhumerus -35.3014 -9.5218 84.0636
lradius 42.6997
lwrist 7.16679
lhand -21.7475 11.4707
lfingers 7.12502
lthumb 4.65258 41.3996
rfemur -10.8164 17.9972 22.4785
rtibia 30.8023
rfoot -23.7342 -24.3145
rtoes -29.0109
lfemur -11.0245 -15.9438 -23.2351
ltibia 32.1186
lfoot -26.4221 23.794
ltoes 3.81721
53
root 11.538 15.3117 1.5365 179.273 8.73233 -179.987
lowerback 7.88958 0.776013 -1.98195
upperback 4.0813 1.22551 -1.67877
thorax -0.204729 0.74717 -0.712917
lowerneck -4.65659 6.30853 8.9988
upperneck 1.57725 8.09146 -6.39053
head 2.03739 3.9931 -3.39314
rclavicle 2.26615e-014 -1.03368e-014
rhumerus -37.6789 -5.87512 -83.2366
rradius 37.194
rwrist -19.2478
rhand -22.1373 3.51652
rfingers 7.12502
rthumb 4.27616 -26.4203
lclavicle 2.26615e-014 -1.03368e-014
lhumerus -35.2303 -9.93748 84.0517
lradius 41.9619
lwrist 6.73231
lhand -21.2701 11.3839
lfingers 7.12502
lthumb 5.11358 41.3022
rfemur -10.7544 18.4263 22.4013
rtibia 30.9067
rfoot -24.3442 -24.2107
rtoes -27.1406
lfemur -10.9024 -15.7948 -23.4146
ltibia 32.1516
lfoot -26.5355 23.767
ltoes 4.12616
54
root 11.5452 15.3116 1.52525 179.422 8.86524 -179.858
lowerback 8.01433 0.650849 -1.82208
upperback 4.1063 1.06849 -1.65284
thorax -0.245593 0.671545 -0.765398
lowerneck -5.31031 6.19231 8.21019
upperneck 1.59787 7.90871 -5.66452
head 2.06488 3.9011 -2.9875
rclavicle 2.85256e-014 4.53229e-014
rhumerus -37.7 -5.67017 -83.2586
rradius 37.5072
rwrist -18.9354
rhand -22.1016 3.56709
rfingers 7.12502
rthumb 4.31068 -26.369
lclavicle 2.85256e-014 4.53229e-014
lhumerus -35.1911 -10.1548 84.0153
lradius 41.2008
lwrist 6.14777
lhand -20.0449 11.4193
lfingers 7.12502
lthumb 6.29648 41.3057
rfemur -10.9447 18.483 22.5315
rtibia 31.0493
rfoot -24.8614 -23.8574
rtoes -25.5152
lfemur -10.9941 -15.6013 -23.2167
ltibia 32.1594
lfoot -26.4641 23.7554
ltoes 3.85146
55
root 11.5538 15.3126 1.51395 179.658 9.01451 -179.878
lowerback 7.98158 0.602998 -1.74517
upperback 4.14716 1.01567 -1.70448
thorax -0.183267 0.648065 -0.856387
lowerneck -5.05356 5.93927 8.17047
upperneck 0.653818 7.58678 -5.92231
head 1.69337 3.73914 -3.09939
rclavicle 2.18663e-015 3.4191e-014
rhumerus -37.7353 -5.53727 -83.3053
rradius 37.8303
rwrist -18.8853
rhand -22.0166 3.51561
rfingers 7.12502
rthumb 4.39276 -26.4188
lclavicle 2.18663e-015 3.4191e-014
lhumerus -35.0544 -10.4586 83.9804
lradius 40.3536
lwrist 5.4761
lhand -18.7495 11.0527
lfingers 7.12502
lthumb 7.54696 40.8981
rfemur -11.2758 18.443 22.4386
rtibia 31.181
rfoot -25.0167 -23.5299
rtoes -25.0442
lfemur -11.2166 -15.4848 -23.1631
ltibia 32.1976
lfoot -26.4167 23.8023
ltoes 3.47938
56
root 11.561 15.3152 1.50243 179.98 9.24524 -179.964
lowerback 7.95212 0.577228 -1.82349
upperback 4.1273 0.973019 -1.70695
thorax -0.188637 0.624261 -0.811307
lowerneck -5.04326 5.76948 8.07115
upperneck 0.0249283 7.3661 -6.09734
head 1.47229 3.62862 -3.15708
rclavicle 1.09332e-014 2.38542e-015
rhumerus -37.8022 -5.10056 -83.3671
rradius 38.1499
rwrist -19.2097
rhand -22.1559 3.54755
rfingers 7.12502
rthumb 4.25819 -26.3896
lclavicle 1.09332e-014 2.38542e-015
lhumerus -34.9379 -10.5162 83.9778
lradius 39.4326
lwrist 4.75305
lhand -18.2851 10.7049
lfingers 7.12502
lthumb 7.99522 40.5337
rfemur -11.7613 18.2891 22.2245
rtibia 31.356
rfoot -24.9078 -23.2027
rtoes -25.5305
lfemur -11.5248 -15.3942 -23.1582
ltibia 32.2141
lfoot -26.5037 23.7973
ltoes 3.62631
57
root 11.5656 15.3119 1.49933 180.054 9.40372 -180.045
lowerback 8.30896 0.468378 -1.93581
upperback 4.18266 0.822855 -1.68131
thorax -0.329338 0.55312 -0.714885
lowerneck -5.16752 5.70473 7.94494
upperneck -0.429813 7.28075 -6.23377
head 1.34006 3.58608 -3.18501
rclavicle -2.98177e-016 -2.14687e-014
rhumerus -37.7391 -4.80518 -83.2894
rradius 38.368
rwrist -19.3605
rhand -22.0315 3.65707
rfingers 7.12502
rthumb 4.37831 -26.2777
lclavicle -2.98177e-016 -2.14687e-014
lhumerus -34.8471 -10.3655 83.9292
lradius 38.5972
lwrist 4.14056
lhand -18.1113 10.9108
lfingers 7.12502
lthumb 8.16293 40.7331
rfemur -12.0208 18.1066 22.1107
rtibia 31.6258
rfoot -24.8683 -22.9542
rtoes -26.1672
lfemur -11.5736 -15.3027 -23.202
ltibia 32.1924
lfoot -26.491 23.7647
ltoes 3.62887
58
root 11.5747 15.3097 1.49703 180.194 9.56647 -180.358
lowerback 8.56607 0.430138 -2.29711
upperback 4.2327 0.752516 -1.73857
thorax -0.420714 0.520416 -0.568664
lowerneck -5.20811 5.59976 7.7623
upperneck -0.976968 7.15032 -6.32744
head 1.1551 3.52454 -3.19303
rclavicle -5.06901e-015 4.77083e-015
rhumerus -37.6943 -5.00472 -82.9963
rradius 38.5912
rwrist -19.5797
rhand -21.3388 3.75134
rfingers 7.12502
rthumb 5.04725 -26.1686
lclavicle -5.06901e-015 4.77083e-015
lhumerus -34.8006 -10.3631 83.905
lradius 37.9156
lwrist 3.72482
lhand -17.7749 11.2427
lfingers 7.12502
lthumb 8.48759 41.0522
rfemur -12.4184 18.144 21.7445
rtibia 31.9408
rfoot -24.7647 -22.9543
rtoes -26.9777
lfemur -11.7597 -15.1772 -23.4407
ltibia 32.1795
lfoot -26.4039 23.7662
ltoes 3.41638
59
root 11.5861 15.3088 1.49816 180.385 9.71492 -180.657
lowerback 8.87233 0.431332 -2.68896
upperback 4.24602 0.725082 -1.79094
thorax -0.576784 0.508772 -0.404873
lowerneck -5.15532 5.4451 7.70877
upperneck -1.61883 6.95461 -6.54855
head 0.930491 3.43273 -3.27535
rclavicle 1.19271e-014 1.59028e-014
rhumerus -37.8244 -4.48506 -83.1305
rradius 38.8721
rwrist -19.5496
rhand -22.2007 3.47747
rfingers 7.12502
rthumb 4.215 -26.4606
lclavicle 1.19271e-014 1.59028e-014
lhumerus -34.7925 -10.4343 83.9172
lradius 37.3122
lwrist 3.4795
lhand -17.6782 11.2413
lfingers 7.12502
lthumb 8.58093 41.0469
rfemur -12.8917 18.2999 21.3849
rtibia 32.2409
rfoot -24.9276 -22.9258
rtoes -26.9804
lfemur -12.0945 -14.8498 -23.6092
ltibia 32.2403
lfoot -26.3116 23.5647
ltoes 3.48996
60
root 11.5943 15.3085 1.50495 180.546 9.85371 -180.753
lowerback 9.36912 0.392143 -2.86854
upperback 4.26459 0.652313 -1.79398
thorax -0.829888 0.47858 -0.307134
lowerneck -5.07975 5.34561 7.64745
upperneck -2.23529 6.83369 -6.69835
head 0.712428 3.38056 -3.3294
rclavicle 4.35338e-014 -6.36111e-015
rhumerus -37.9404 -3.87601 -83.2237
rradius 39.1922
rwrist -20.2378
rhand -22.646 3.46157
rfingers 7.12502
rthumb 3.78491 -26.4846
lclavicle 4.35338e-014 -6.36111e-015
lhumerus -34.785 -10.2366 83.8578
lradius 36.7571
lwrist 3.08228
lhand -17.7821 11.0783
lfingers 7.12502
lthumb 8.48064 40.888
rfemur -13.2544 18.4677 21.2516
rtibia 32.4007
rfoot -25.2531 -22.7478
rtoes -26.0437
lfemur -12.4928 -14.3558 -23.5646
ltibia 32.4844
lfoot -26.1908 23.2489
ltoes 3.41145
61
root 11.5979 15.3073 1.50626 180.761 9.97656 -180.658
lowerback 9.75011 0.356153 -2.76291
upperback 4.35055 0.616553 -1.7688
thorax -0.94841 0.469141 -0.341072
lowerneck -5.08238 5.29727 7.62118
upperneck -2.77307 6.77604 -6.83401
head 0.539414 3.35997 -3.3802
rclavicle -1.19271e-014 -4.77083e-015
rhumerus -37.9887 -3.89377 -83.0566
rradius 39.4892
rwrist -20.7562
rhand -22.4152 3.61654
rfingers 7.12502
rthumb 4.0078 -26.3255
lclavicle -1.19271e-014 -4.77083e-015
lhumerus -34.6946 -9.98445 83.7667
lradius 36.3053
lwrist 2.63079
lhand -17.6864 10.9796
lfingers 7.12502
lthumb 8.57302 40.7856
rfemur -13.5223 18.4615 21.2948
rtibia 32.4098
rfoot -25.2817 -22.5705
rtoes -25.6902
lfemur -12.9691 -13.8775 -23.3551
ltibia 32.9394
lfoot -26.153 22.9602
ltoes 2.72805
